<svg width="81" height="82" viewBox="0 0 81 82" fill="none" xmlns="http://www.w3.org/2000/svg">
<path d="M54.0225 80.2773V79.0959C54.0225 77.0846 53.9258 75.5558 53.5389 74.2776C53.1281 72.9201 52.425 71.9497 51.4435 70.9781C50.5234 70.067 49.5553 69.3952 48.3601 68.9714C47.19 68.5564 45.8968 68.4134 44.3801 68.4134H43.9421C43.603 67.3163 42.9399 65.95 42.2997 64.978C40.0169 61.5114 36.2745 59.3052 32.134 58.984L32.1339 58.984C31.5968 58.9424 31.1118 58.9129 30.6665 58.9682C30.1462 59.0328 29.7606 59.1997 29.3996 59.3838C29.3995 59.3838 29.3994 59.3839 29.3994 59.3839L54.0225 80.2773ZM54.0225 80.2773H54.1054H54.1884V63.9751C54.1884 55.2195 54.1895 50.7482 54.2303 48.3929C54.2688 46.1665 54.3235 45.5477 54.671 44.8668L54.6711 44.8666C55.0019 44.2188 55.5384 43.7149 56.0903 43.3763C56.642 43.0378 57.3347 42.7873 58.0628 42.7873C58.7909 42.7873 59.4837 43.0378 60.0353 43.3763C60.5872 43.7149 61.1238 44.2188 61.4545 44.8666L61.4546 44.8668C61.8022 45.5477 61.8568 46.1665 61.8954 48.3929C61.9361 50.7482 61.9372 55.2195 61.9372 63.9751V80.2773H66.6171C69.5781 80.2773 71.0846 80.273 71.9317 80.2334C72.3547 80.2136 72.5373 80.1876 72.6214 80.1696L72.6254 80.1687C72.6598 80.1614 72.6671 80.1599 72.7404 80.1225M54.0225 80.2773L72.7404 80.1225M72.7404 80.1225C72.7403 80.1225 72.7403 80.1226 72.7403 80.1226L73.4193 81.4543L72.7404 80.1225ZM75.5265 23.0082C74.2995 23.1319 73.1845 23.4514 72.264 24.0868C71.3178 24.74 70.6916 25.6481 70.3299 26.7362L71.7533 27.2093L75.5265 23.0083C75.5265 23.0083 75.5265 23.0082 75.5265 23.0082ZM75.5265 23.0082C77.3484 22.8246 78.4874 22.0106 79.1615 20.574C79.2716 20.3394 79.302 20.2677 79.3249 20.1919C79.3442 20.1281 79.3717 20.0137 79.3955 19.7396C79.4476 19.1404 79.4606 18.1018 79.4852 15.8405M75.5265 23.0082L79.4852 15.8405M67.6777 3.88672L67.6779 3.88686L67.6779 3.88687C67.678 3.88697 67.6788 3.88764 67.6803 3.88896L67.6876 3.89538C67.6941 3.90109 67.7027 3.90883 67.7137 3.91888C67.7359 3.93919 67.7642 3.96579 67.7993 3.99936C67.8696 4.06672 67.9583 4.15409 68.0646 4.26087C68.277 4.47418 68.5464 4.75172 68.8552 5.07558C69.4724 5.72265 70.2337 6.54026 70.988 7.37006L73.757 10.4164L74.183 10.885L74.8159 10.9065L77.1383 10.9856C78.2069 11.022 78.7008 11.05 78.9836 11.0933C79.0492 11.1034 79.0855 11.1119 79.1021 11.1164C79.1091 11.1209 79.1202 11.1284 79.1361 11.1398L67.6777 3.88672ZM67.6777 3.88672C67.0701 3.37615 65.6944 2.69151 64.7609 2.46483M67.6777 3.88672L50.1385 14.5797M50.1385 14.5797L50.1385 14.5796C48.8562 11.0314 48.7987 10.6647 48.7987 9.48524C48.7987 6.20232 51.1471 3.23416 54.3291 2.48456L54.3289 2.4846C54.3289 2.48461 54.3416 2.48177 54.3708 2.47697C54.4011 2.47197 54.4417 2.46607 54.494 2.45956C54.5993 2.44645 54.7351 2.43294 54.9017 2.41964C55.2349 2.39305 55.6595 2.36978 56.1521 2.35059C57.1358 2.31228 58.3517 2.29172 59.5724 2.28982C60.7932 2.28792 62.0055 2.30471 62.9822 2.33994C63.4714 2.35759 63.8913 2.37952 64.2187 2.40498C64.3825 2.41772 64.5146 2.4307 64.6158 2.44325C64.7088 2.45479 64.7519 2.46314 64.7599 2.46468C64.7613 2.46496 64.7616 2.46502 64.7609 2.46483M50.1385 14.5797C50.6982 16.1286 51.0514 16.9468 51.3599 17.437C51.6046 17.8259 51.7865 17.9599 52.1047 18.1044M50.1385 14.5797L52.1047 18.1044M64.7609 2.46483L65.1137 1.01074L64.7607 2.46478C64.7607 2.4648 64.7608 2.46481 64.7609 2.46483ZM14.897 80.2725C13.6732 78.1237 13.1805 76.0515 13.0732 73.0736L13.0418 72.2029L11.4185 72.2414C8.61466 72.3077 8.39523 72.3557 7.47955 72.6557C7.47957 72.6557 7.4796 72.6557 7.47962 72.6557L14.897 80.2725ZM14.897 80.2725L9.90881 80.2435L2.53744 80.2007L2.30633 80.0571L2.30607 80.0569C1.6581 79.6544 1.37602 78.9096 1.55173 78.2464C1.72356 77.5981 2.22897 76.6843 2.99883 75.7495C3.75632 74.8296 4.66001 74.023 5.48919 73.5359L14.897 80.2725ZM79.4852 15.8405C79.513 13.2854 79.5074 12.147 79.4065 11.5345M79.4852 15.8405L79.4065 11.5345M79.4065 11.5345C79.3849 11.4033 79.3641 11.3355 79.3534 11.3068M79.4065 11.5345L79.3534 11.3068M79.3534 11.3068C79.3328 11.288 79.2752 11.2389 79.1363 11.1399L79.3534 11.3068ZM52.1047 18.1044C52.943 18.4849 54.203 18.2307 54.8456 17.5298L52.1047 18.1044ZM46.0781 76.4658C46.0778 76.4653 46.0775 76.4648 46.0773 76.4644L54.8457 17.5297C55.1214 17.2289 55.3248 16.946 55.7261 14.2777L55.7261 14.2776C55.8117 13.7089 55.9208 13.1479 56.0337 12.682C56.0899 12.45 56.1506 12.227 56.2141 12.0311C56.267 11.8683 56.3562 11.6126 56.4938 11.3864C58.0975 8.7509 61.8847 9.06836 63.2456 11.7036L63.2457 11.7037L63.5616 12.3155L63.7843 12.7467L63.7122 13.2266L63.3525 15.6203L63.3525 15.6204C63.1548 16.9362 62.8375 18.5541 62.6216 19.2096L62.6216 19.2096C61.5653 22.4166 58.9228 24.8752 55.6384 25.7302L55.6383 25.7302C54.5347 26.0174 53.2608 26.0737 52.0739 25.9632C51.2493 25.8864 50.4032 25.7231 49.6338 25.4613C48.1155 29.7442 45.4325 33.4257 41.8356 36.1526L40.9294 34.9572L41.8355 36.1526C40.1438 37.435 38.768 38.1917 36.2439 39.2673L36.2439 39.2673C32.9049 40.6899 30.7307 42.112 28.3432 44.4129L28.3432 44.4129C24.9286 47.7035 22.7472 51.4462 21.6014 55.9662C20.8692 58.8545 20.7498 60.3662 20.8107 68.0824L20.8622 74.6102L21.1724 75.411L21.1724 75.4112C22.0258 77.615 23.5105 79.0856 25.7598 79.9365C25.9687 80.0155 26.0358 80.0389 26.1908 80.0646C26.3936 80.0982 26.7426 80.131 27.4695 80.1559C28.9155 80.2054 31.5858 80.2179 36.9766 80.2419L46.2736 80.283V79.1671C46.2736 77.5774 46.2186 76.9061 46.1155 76.5639C46.0964 76.5007 46.0819 76.4727 46.0781 76.4658ZM79.1133 11.1197C79.1133 11.1197 79.1127 11.1195 79.1115 11.1191L79.1133 11.1197ZM79.3459 11.2895C79.3458 11.2897 79.3468 11.292 79.3491 11.2959C79.3471 11.2913 79.3459 11.2893 79.3459 11.2895Z" stroke="#240401" stroke-width="3"/>
</svg>
