<svg width="16" height="16" viewBox="0 0 16 16" fill="none" xmlns="http://www.w3.org/2000/svg">
<g clip-path="url(#clip0_121_948)">
<path d="M3.63626 6.43588C3.48892 5.02723 2.6756 4.21188 1.7456 4.21188V4.21323C1.68948 4.21316 1.63342 4.21604 1.5776 4.22188C0.579604 4.32454 -0.133052 5.32054 0.0216038 6.81323C0.170948 8.24123 1.03426 9.33323 1.98295 9.33323C2.02592 9.33332 2.06889 9.33107 2.1116 9.32657C3.1116 9.22254 3.79226 7.92654 3.63626 6.43588ZM1.97226 7.99188C1.58254 7.66438 1.39517 7.20523 1.3476 6.67454C1.3476 6.33882 1.34442 6.00757 1.4936 5.7092C1.57651 5.55326 1.6776 5.55054 1.71626 5.54654L1.74573 5.54604C1.97038 5.54604 2.24292 5.92985 2.31026 6.57385C2.35638 7.07545 2.28529 7.59063 1.97226 7.99188Z" fill="white"/>
<path d="M5.64468 5.63334C5.69202 5.63334 5.73868 5.63334 5.78602 5.626C6.88402 5.51134 7.63468 4.08734 7.46337 2.446C7.30137 0.897344 6.40668 0 5.38402 0C5.32255 6.25e-05 5.26115 0.003375 5.20002 0.01C4.10137 0.124 3.31602 1.21934 3.48737 2.86134C3.65202 4.432 4.60002 5.63334 5.64468 5.63334ZM4.99402 1.57334C5.06118 1.441 5.18999 1.35094 5.33737 1.33334C5.3529 1.33238 5.36849 1.33238 5.38402 1.33334C5.69337 1.33334 6.05068 1.76334 6.13737 2.58469C6.19965 3.06241 6.12474 3.54797 5.92137 3.98469C5.80002 4.21469 5.67802 4.29469 5.64471 4.29803C5.47337 4.29803 4.92205 3.75538 4.81337 2.72069C4.74387 2.32878 4.80746 1.92491 4.99402 1.57334Z" fill="white"/>
<path d="M10.2432 5.626C10.2905 5.63066 10.3378 5.63334 10.3845 5.63334C11.4279 5.63334 12.3779 4.43334 12.5419 2.86134C12.7132 1.21934 11.9279 0.124 10.8305 0.01C10.7692 0.003375 10.7076 3.125e-05 10.6459 0C9.62253 0 8.72787 0.897344 8.56587 2.446C8.39452 4.08734 9.14518 5.51266 10.2432 5.626ZM9.89253 2.584C9.97787 1.76334 10.3339 1.33334 10.6459 1.33334C10.6612 1.33234 10.6766 1.33234 10.6919 1.33334C10.8391 1.35078 10.9679 1.44059 11.0352 1.57269C11.2225 1.92403 11.2861 2.32813 11.2159 2.72003C11.1079 3.75469 10.5559 4.29738 10.3819 4.29738C10.3512 4.29738 10.2292 4.21403 10.1079 3.98403C9.90443 3.54731 9.82971 3.06166 9.89253 2.584Z" fill="white"/>
<path d="M8.00061 7.33334C4.97261 7.33334 2.00061 10.4273 1.99661 13.5793C1.91395 15.712 3.72995 16.4847 5.92995 15.698C7.27114 15.2407 8.72611 15.2407 10.0673 15.698C10.584 15.8725 11.1225 15.9741 11.6673 16C13.596 16 14.0006 14.6833 14.0006 13.5793C14.0006 10.4273 11.0286 7.33334 8.00061 7.33334ZM8.00061 14C6.49795 13.762 3.18461 15.8887 3.33395 13.5793C3.33395 11.146 5.6893 8.66669 8.00061 8.66669C10.3119 8.66669 12.6673 11.146 12.6673 13.5793C12.818 15.8867 9.51061 13.7647 8.00061 14Z" fill="white"/>
<path d="M14.6476 4.92715L14.6473 4.92846C14.5927 4.91543 14.5375 4.90534 14.4818 4.89812C13.4871 4.76774 12.5638 5.57246 12.3699 7.06053C12.1857 8.48446 12.7738 9.74618 13.6969 9.96506C13.7387 9.97506 13.781 9.98281 13.8237 9.98824C14.8207 10.1178 15.782 9.01381 15.9741 7.52734C16.1558 6.12271 15.5525 5.14171 14.6476 4.92715ZM14.6521 7.35571C14.5812 7.85437 14.3932 8.33928 13.996 8.65746C13.6924 8.24887 13.616 7.7589 13.6921 7.23156C13.7696 6.9049 13.8429 6.58184 14.0569 6.32596C14.1736 6.19337 14.2726 6.21403 14.3111 6.21906L14.3399 6.2254C14.5585 6.27721 14.7351 6.71356 14.6521 7.35571Z" fill="white"/>
</g>
<defs>
<clipPath id="clip0_121_948">
<rect width="16" height="16" fill="white"/>
</clipPath>
</defs>
</svg>
