<svg width="20" height="20" viewBox="0 0 20 20" fill="none" xmlns="http://www.w3.org/2000/svg">
<path d="M17.3913 1.28688L10 8.67813L2.60877 1.28688C2.431 1.1242 2.19732 1.03639 1.95641 1.04173C1.7155 1.04706 1.48594 1.14514 1.31555 1.31553C1.14516 1.48593 1.04708 1.71549 1.04174 1.9564C1.0364 2.1973 1.12422 2.43099 1.28689 2.60876L8.67439 10L1.28502 17.3894C1.19474 17.4754 1.12258 17.5786 1.07276 17.693C1.02295 17.8073 0.996489 17.9304 0.994945 18.0551C0.9934 18.1798 1.0168 18.3035 1.06377 18.4191C1.11074 18.5346 1.18032 18.6396 1.26844 18.7278C1.35656 18.8161 1.46143 18.8858 1.57689 18.9329C1.69235 18.9801 1.81606 19.0036 1.94076 19.0023C2.06546 19.0009 2.18863 18.9746 2.30302 18.925C2.41742 18.8753 2.52073 18.8033 2.60689 18.7131L10 11.3238L17.3913 18.715C17.569 18.8777 17.8027 18.9655 18.0436 18.9602C18.2845 18.9548 18.5141 18.8567 18.6845 18.6863C18.8549 18.516 18.953 18.2864 18.9583 18.0455C18.9636 17.8046 18.8758 17.5709 18.7131 17.3931L11.3219 10.0019L18.7131 2.60876C18.8034 2.52272 18.8756 2.41951 18.9254 2.30518C18.9752 2.19086 19.0017 2.06773 19.0032 1.94303C19.0048 1.81833 18.9814 1.69459 18.9344 1.57906C18.8874 1.46354 18.8178 1.35857 18.7297 1.27033C18.6416 1.18208 18.5367 1.11235 18.4213 1.06521C18.3058 1.01808 18.1821 0.994508 18.0574 0.995875C17.9327 0.997243 17.8095 1.02353 17.6951 1.07318C17.5807 1.12283 17.4774 1.19485 17.3913 1.28501V1.28688Z" fill="#D2D2DB"/>
</svg>
